<?xml version="1.0" encoding="utf-8"?>
<svg xmlns="http://www.w3.org/2000/svg"
	xmlns:xlink="http://www.w3.org/1999/xlink"
	width="18px" height="15px" viewBox="0 0 18 15">
<path fillRule="evenodd" d="M 17.73 3.66C 17.73 3.66 17.73 3.66 17.73 3.66 17.73 3.66 15.25 9.16 15.25 9.16 15.25 9.16 15.25 9.16 15.25 9.16 15.13 9.43 14.87 9.63 14.55 9.65 14.55 9.65 14.55 9.65 14.55 9.65 14.55 9.65 7.43 10.12 7.43 10.12 7.43 10.12 7.84 11.3 7.84 11.3 7.84 11.3 15.6 11.3 15.6 11.3 16.51 11.3 17.25 12.04 17.25 12.95 17.25 13.86 16.51 14.6 15.6 14.6 14.69 14.6 13.95 13.86 13.95 12.95 13.95 12.95 6.25 12.95 6.25 12.95 6.25 13.86 5.51 14.6 4.6 14.6 3.69 14.6 2.95 13.86 2.95 12.95 2.95 12.04 3.69 11.3 4.6 11.3 4.6 11.3 6.09 11.3 6.09 11.3 6.09 11.3 2.91 2.22 2.91 2.22 2.91 2.22 1.02 2.22 1.02 2.22 0.57 2.22 0.2 1.86 0.2 1.4 0.2 0.94 0.57 0.57 1.02 0.57 1.02 0.57 3.5 0.57 3.5 0.57 3.86 0.57 4.16 0.81 4.28 1.13 4.28 1.13 4.28 1.13 4.28 1.13 4.28 1.13 4.76 2.5 4.76 2.5 4.76 2.5 16.97 2.5 16.97 2.5 17.43 2.5 17.8 2.87 17.8 3.32 17.8 3.45 17.77 3.56 17.73 3.66ZM 5.34 4.15C 5.34 4.15 6.86 8.51 6.86 8.51 6.86 8.51 13.95 8.03 13.95 8.03 13.95 8.03 15.7 4.15 15.7 4.15 15.7 4.15 5.34 4.15 5.34 4.15Z" fill="rgb(255,255,255)"/></svg>